# xmcd
#
# Track frame offsets:
#	150
#	15062
#	28538
#	40411
#	56367
#	74749
#	85860
#	96918
#	113283
#	128833
#	141898
#	151939
#	164626
#	176339
#	188353
#	201727
#	216435
#	225775
#	241765
#	253795
#	265513
#	277168
#	289779
#	303559
#	314108
#
# Disc length: 4349
#
# Revision: 1
# Processed by: cddbd v1.5.1PL0 Copyright (c) Steve Scherf et al.
# Submitted via: EasyCDDAExtractor 4.5.0.1
# Normalized: r0:DSETVAR1,TDELIM( - )
#
DISCID=5f10fb19
DTITLE=Various Artist - Try To Remember, crooners'n'divas, Disc 2
DYEAR=1900
DGENRE=Oldies
TTITLE0=Perry Como - And I Love Her So
TTITLE1=Dean Martin - Volare (Nel Blu Dipinto Di Blu)
TTITLE2=Ella Fitzgerald - A-Tisket A-Tasket
TTITLE3=Billie Holiday - A Fine Romance
TTITLE4=Harry Belafonte - Try To Remember
TTITLE5=Dinah Washington - Fly Me To The Moon
TTITLE6=Matt Monro - Strangers In The Night
TTITLE7=Judy Garland - Over The Rainbow
TTITLE8=Andy Williams - Love Made Me A Fool
TTITLE9=Eartha Kitt - Just An Old Fashioned Girl
TTITLE10=Tony Bennett - Blue Moon
TTITLE11=Julie London - Cry Me A River
TTITLE12=Mel Tormé - I Concentrate On You
TTITLE13=Lena Horne - What Is This Thing Called Love?
TTITLE14=Frank Sinatra - Begin The Beguine
TTITLE15=Keely Smith - The Man I Love
TTITLE16=Bobby Darin - Call Me Irresponsible
TTITLE17=Shirley Bassey - I've Got You Under My Skin
TTITLE18=June Christy - They Can't Take That Away From Me
TTITLE19=Nancy Wilson - I Can't Stop Loving You
TTITLE20=Danny Williams - Moon River
TTITLE21=Jo Stafford - Smoke Gets In Your Eyes
TTITLE22=Vera Lynn - The White Cliffs Of Dover
TTITLE23=Jimmy Rogers - Kisses Sweeter Than Wine
TTITLE24=Al Martino - I Love You Because
EXTD=
EXTT0=
EXTT1=
EXTT2=
EXTT3=
EXTT4=
EXTT5=
EXTT6=
EXTT7=
EXTT8=
EXTT9=
EXTT10=
EXTT11=
EXTT12=
EXTT13=
EXTT14=
EXTT15=
EXTT16=
EXTT17=
EXTT18=
EXTT19=
EXTT20=
EXTT21=
EXTT22=
EXTT23=
EXTT24=
PLAYORDER=
